PathFileType	4	(X/Y/Z)	C:\Users\willi\Documents\UniDataLokal\DATA_Hans_PhD\TD04\B\3DGAIT_B_W12\marker_experimental.trc
DataRate	CameraRate	NumFrames	NumMarkers	Units	OrigDataRate	OrigDataStartFrame	OrigNumFrames
100.000000	100.000000	4	97	mm	100.000000	0	191
Frame#	Time	RBAK			C7			CLAV			T10			STRN			RASI			RPSI			LPSI			LASI			LPELV			RPELV			RTHI1			RTHI2			RTHI3			RTHI			RKNE			RKNEM			RPAT			RLKNEL			RLKNEM			RLPAT			RTIB1			RTIB2			RTIB3			RTIB			RANK			RANKM			RHEEL			RTOE			RM5			LTHI1			LTHI2			LTHI3			LTHI			LKNE			LKNEM			LPAT			LLKNE			LLKNEM			LLPAT			LTIB1			LTIB2			LTIB3			LTIB			LANK			LANKM			LHEEL			LTOE			LM5			*49			*50			*51			*52			*53			*54			*55			*56			*57			*58			*59			*60			*61			*62			*63			*64			*65			*66			*67			*68			*69			*70			*71			*72			*73			*74			*75			*76			*77			*78			*79			*80			*81			*82			*83			*84			*85			*86			*87			*88			*89			*90			*91			*92			*93			*94			*95			*96			
		X1	Y1	Z1	X2	Y2	Z2	X3	Y3	Z3	X4	Y4	Z4	X5	Y5	Z5	X6	Y6	Z6	X7	Y7	Z7	X8	Y8	Z8	X9	Y9	Z9	X10	Y10	Z10	X11	Y11	Z11	X12	Y12	Z12	X13	Y13	Z13	X14	Y14	Z14	X15	Y15	Z15	X16	Y16	Z16	X17	Y17	Z17	X18	Y18	Z18	X19	Y19	Z19	X20	Y20	Z20	X21	Y21	Z21	X22	Y22	Z22	X23	Y23	Z23	X24	Y24	Z24	X25	Y25	Z25	X26	Y26	Z26	X27	Y27	Z27	X28	Y28	Z28	X29	Y29	Z29	X30	Y30	Z30	X31	Y31	Z31	X32	Y32	Z32	X33	Y33	Z33	X34	Y34	Z34	X35	Y35	Z35	X36	Y36	Z36	X37	Y37	Z37	X38	Y38	Z38	X39	Y39	Z39	X40	Y40	Z40	X41	Y41	Z41	X42	Y42	Z42	X43	Y43	Z43	X44	Y44	Z44	X45	Y45	Z45	X46	Y46	Z46	X47	Y47	Z47	X48	Y48	Z48	X49	Y49	Z49	X50	Y50	Z50	X51	Y51	Z51	X52	Y52	Z52	X53	Y53	Z53	X54	Y54	Z54	X55	Y55	Z55	X56	Y56	Z56	X57	Y57	Z57	X58	Y58	Z58	X59	Y59	Z59	X60	Y60	Z60	X61	Y61	Z61	X62	Y62	Z62	X63	Y63	Z63	X64	Y64	Z64	X65	Y65	Z65	X66	Y66	Z66	X67	Y67	Z67	X68	Y68	Z68	X69	Y69	Z69	X70	Y70	Z70	X71	Y71	Z71	X72	Y72	Z72	X73	Y73	Z73	X74	Y74	Z74	X75	Y75	Z75	X76	Y76	Z76	X77	Y77	Z77	X78	Y78	Z78	X79	Y79	Z79	X80	Y80	Z80	X81	Y81	Z81	X82	Y82	Z82	X83	Y83	Z83	X84	Y84	Z84	X85	Y85	Z85	X86	Y86	Z86	X87	Y87	Z87	X88	Y88	Z88	X89	Y89	Z89	X90	Y90	Z90	X91	Y91	Z91	X92	Y92	Z92	X93	Y93	Z93	X94	Y94	Z94	X95	Y95	Z95	X96	Y96	Z96	X97	Y97	Z97	

1	0	-1503.095458984375	1332.815795898438	355.7790527343749	-1473.293823242188	1378.138061523438	257.5514526367186	-1361.251098632812	1295.624389648438	260.7468261718749	-1505.900756835938	999.2345581054689	244.4410247802734	-1315.493286132812	1045.51416015625	244.4696197509765	-1344.823364257812	891.7183837890626	355.7130126953124	-1523.487426757812	927.1115722656251	288.7641601562499	-1528.325561523438	923.4867553710939	200.1080322265624	-1341.267333984375	887.5903930664064	146.1104888916015	-1431.552124023438	960.5202636718751	95.59799194335929	-1442.437622070312	968.5209960937501	390.5493164062499	-1491.164916992188	644.1560058593751	367.8441467285155	-1451.713134765625	586.5827636718751	387.4616394042968	-1486.822387695312	540.2252807617189	351.400665283203	-1398.86181640625	551.1259765625001	425.199981689453	-1412	459.6115112304689	366.7322692871093	-1423.222412109375	451.3635864257814	239.2707977294921	-1358.897216796875	447.6208190917969	303.7058105468749	-1424.374389648438	425.3242797851564	363.0018310546874	-1448.3095703125	405.6499938964845	242.1455841064452	-1388.058349609375	383.9604492187501	314.8728332519531	-1406.104614257812	279.9189758300782	309.089630126953	-1435.446166992188	237.8397674560548	347.7164001464843	-1421.614501953125	187.5272064208985	302.0728759765624	-1498.419555664062	186.089828491211	375.8555603027343	-1487.734252929688	71.47252655029305	314.5007324218749	-1453.52978515625	88.93290710449227	246.404800415039	-1524.455810546875	37.45968627929697	264.9042053222655	-1349.31005859375	40.29201889038094	329.5992431640624	-1381.829467773438	18.17045783996591	360.7742919921874	-1389.479736328125	612.1308593750001	100.3873748779296	-1329.102905273438	588.0654907226564	85.75518035888663	-1338.648071289062	530.1473388671876	117.4496459960937	-1282.387939453125	575.8820190429689	50.33354187011711	-1255.106201171875	481.6532897949219	110.2579269409179	-1272.772827148438	473.3690795898438	235.1868896484374	-1187.8642578125	485.4699096679688	175.6661224365234	-1278.325805664062	452.9726867675782	111.8560409545898	-1280.47314453125	436.1093444824219	229.7974243164062	-1235.65576171875	405.7536315917969	158.9781188964843	-1317.671875	289.5351867675782	165.0241088867187	-1367.954345703125	257.9569396972657	128.4532775878905	-1371.109619140625	210.4999389648438	170.8085327148437	-1428.764038085938	273.3851928710939	89.4362030029296	-1465.79296875	163.9381408691407	146.6188049316405	-1426.078857421875	151.3315429687501	208.5333404541015	-1512.509521484375	146.6883087158204	200.574722290039	-1368.798583984375	65.05007934570321	121.125991821289	-1407.847534179688	58.87427902221688	94.8378372192382	nan	nan	nan	nan	nan	nan	nan	nan	nan	nan	nan	nan	nan	nan	nan	nan	nan	nan	nan	nan	nan	nan	nan	nan	nan	nan	nan	nan	nan	nan	nan	nan	nan	nan	nan	nan	nan	nan	nan	nan	nan	nan	nan	nan	nan	nan	nan	nan	nan	nan	nan	nan	nan	nan	nan	nan	nan	nan	nan	nan	nan	nan	nan	nan	nan	nan	nan	nan	nan	nan	nan	nan	nan	nan	nan	nan	nan	nan	nan	nan	nan	nan	nan	nan	nan	nan	nan	nan	nan	nan	nan	nan	nan	nan	nan	nan	nan	nan	nan	nan	nan	nan	nan	nan	nan	nan	nan	nan	nan	nan	nan	nan	nan	nan	nan	nan	nan	nan	nan	nan	nan	nan	nan	nan	nan	nan	nan	nan	nan	nan	nan	nan	nan	nan	nan	nan	nan	nan	nan	nan	nan	nan	nan	nan	
2	0.01	-1494.386108398438	1331.738647460938	356.7948303222655	-1464.640258789062	1376.937622070312	258.3244323730468	-1352.873779296875	1293.611083984375	261.6950073242187	-1496.872802734375	998.2374877929689	244.6747436523437	-1306.381469726562	1044.803955078125	245.7440185546874	-1336.5693359375	890.9362792968751	356.8108520507812	-1514.791259765625	926.3327026367189	288.5292968749999	-1518.923950195312	922.8795166015626	199.8433685302734	-1331.371215820312	887.4640502929689	147.386260986328	-1421.510375976562	960.6453247070314	96.29830169677726	-1434.545288085938	967.6173095703126	391.243194580078	-1485.16943359375	644.6582031250001	367.543487548828	-1446.622192382812	586.5364990234376	387.4132690429686	-1482.150024414062	540.6733398437501	351.2075805664061	-1394.019409179688	550.4324340820314	425.213409423828	-1408.413330078125	459.1159973144532	366.9053955078124	-1419.533813476562	450.9501037597657	239.352066040039	-1355.62353515625	446.6360778808594	304.0070800781249	-1421.10107421875	424.9223632812501	363.0338134765624	-1445.023681640625	405.5096435546876	242.2448272705077	-1385.283447265625	383.3236083984376	314.9439086914062	-1403.908813476562	279.5112609863282	309.0574340820311	-1433.757690429688	237.4898681640626	347.695831298828	-1420.802978515625	186.8437500000001	301.8566284179686	-1497.190795898438	186.2898406982423	375.8065795898436	-1487.506225585938	71.62969970703134	314.3632202148436	-1453.273559570312	88.86167907714852	246.1259613037109	-1524.386352539062	37.61059570312509	264.876495361328	-1349.301147460938	40.24160766601571	329.5780029296874	-1381.863159179688	18.19441604614266	360.8208923339843	-1378.5556640625	612.0553588867189	100.8610153198241	-1318.179931640625	588.0987548828126	86.55847930908195	-1327.335815429688	530.2819824218751	118.1155319213866	-1270.621459960938	576.3377075195314	52.02804946899406	-1243.327880859375	482.1342163085938	111.8842086791991	-1261.77099609375	473.5267028808594	236.3216400146484	-1176.233520507812	487.6819763183594	177.5978851318359	-1265.949584960938	452.3963317871094	112.9891204833984	-1267.565063476562	435.8168945312501	230.3514862060546	-1221.606689453125	407.1465759277344	160.1226959228515	-1296.380493164062	286.6834411621094	165.1392974853515	-1344.68212890625	252.4927978515626	128.3113555908202	-1345.100952148438	204.6921844482423	170.3266296386718	-1407.435180664062	265.1943664550782	89.75375366210929	-1437.473388671875	152.8026428222657	145.858169555664	-1397.127685546875	142.1710815429688	207.732940673828	-1483.309204101562	132.4976806640626	199.3722229003905	-1334.507568359375	61.21140670776376	121.0503921508788	-1372.771118164062	52.35349273681649	94.35279846191398	nan	nan	nan	nan	nan	nan	nan	nan	nan	nan	nan	nan	nan	nan	nan	nan	nan	nan	nan	nan	nan	nan	nan	nan	nan	nan	nan	nan	nan	nan	nan	nan	nan	nan	nan	nan	nan	nan	nan	nan	nan	nan	nan	nan	nan	nan	nan	nan	nan	nan	nan	nan	nan	nan	nan	nan	nan	nan	nan	nan	nan	nan	nan	nan	nan	nan	nan	nan	nan	nan	nan	nan	nan	nan	nan	nan	nan	nan	nan	nan	nan	nan	nan	nan	nan	nan	nan	nan	nan	nan	nan	nan	nan	nan	nan	nan	nan	nan	nan	nan	nan	nan	nan	nan	nan	nan	nan	nan	nan	nan	nan	nan	nan	nan	nan	nan	nan	nan	nan	nan	nan	nan	nan	nan	nan	nan	nan	nan	nan	nan	nan	nan	nan	nan	nan	nan	nan	nan	nan	nan	nan	nan	nan	nan	
3	0.02	-1485.632568359375	1330.60302734375	357.6987915039061	-1455.941528320312	1375.681884765625	258.9948425292968	-1344.411865234375	1291.631958007812	262.5358276367187	-1487.795288085938	997.1550903320314	244.8536224365234	-1297.248657226562	1043.970581054688	246.9437103271484	-1328.303588867188	890.0621337890626	357.8924255371093	-1506.046997070312	925.4490966796876	288.246368408203	-1509.464233398438	922.1463012695314	199.5433349609374	-1321.41845703125	887.1609497070314	148.6508789062499	-1411.347290039062	960.5632934570314	96.94709777832023	-1426.6123046875	966.6305541992189	391.8797912597655	-1479.084350585938	645.0703125000001	367.1898498535155	-1441.452392578125	586.4284667968751	387.3228759765624	-1477.373657226562	541.0630493164064	350.945831298828	-1389.13623046875	549.6962280273439	425.2024841308593	-1404.7109375	458.5691223144532	367.0257568359374	-1415.691528320312	450.5176696777345	239.3772430419921	-1352.163330078125	445.5996398925782	304.2771606445312	-1417.7099609375	424.4769287109376	363.0138244628905	-1441.608154296875	405.3486328125001	242.2594757080077	-1382.368530273438	382.6237792968751	314.9678649902343	-1401.629516601562	279.0401306152345	308.9585876464843	-1431.98583984375	237.1208038330079	347.606964111328	-1419.842529296875	186.1688537597657	301.5971374511718	-1495.8662109375	186.4859771728516	375.6968994140624	-1487.235229492188	71.79946136474618	314.1810913085936	-1452.99072265625	88.77784729003915	245.7949676513671	-1524.309692382812	37.78859710693369	264.7893981933593	-1349.268798828125	40.18345260620126	329.5302734374999	-1381.894165039062	18.23945999145516	360.8368225097656	-1368.010375976562	611.7954101562501	101.2937774658202	-1307.6357421875	587.9476928710939	87.32087707519523	-1316.620361328125	530.1093139648439	118.7256622314452	-1259.294067382812	576.2667846679689	53.42438125610344	-1232.132446289062	482.1618347167969	113.349136352539	-1251.052124023438	473.3239440917969	237.4144744873046	-1165.289428710938	489.2539367675782	179.4341430664062	-1254.064575195312	451.4609069824219	113.9580993652343	-1255.187866210938	435.1741943359376	230.9578552246093	-1208.170776367188	408.2003479003907	161.2252349853515	-1275.451416015625	284.1298217773438	165.2574005126952	-1321.4990234375	247.4121856689454	128.1450042724609	-1319.236450195312	199.4480743408204	169.8839721679687	-1385.763427734375	257.0809936523438	89.88307189941398	-1408.737548828125	142.3149719238282	145.0567016601562	-1367.76025390625	133.6584625244141	206.8916931152343	-1453.5068359375	119.0569229125977	198.1844177246093	-1300.316528320312	58.03120422363289	120.7786254882812	-1337.709350585938	46.64293289184579	93.74221038818351	nan	nan	nan	nan	nan	nan	nan	nan	nan	nan	nan	nan	nan	nan	nan	nan	nan	nan	nan	nan	nan	nan	nan	nan	nan	nan	nan	nan	nan	nan	nan	nan	nan	nan	nan	nan	nan	nan	nan	nan	nan	nan	nan	nan	nan	nan	nan	nan	nan	nan	nan	nan	nan	nan	nan	nan	nan	nan	nan	nan	nan	nan	nan	nan	nan	nan	nan	nan	nan	nan	nan	nan	nan	nan	nan	nan	nan	nan	nan	nan	nan	nan	nan	nan	nan	nan	nan	nan	nan	nan	nan	nan	nan	nan	nan	nan	nan	nan	nan	nan	nan	nan	nan	nan	nan	nan	nan	nan	nan	nan	nan	nan	nan	nan	nan	nan	nan	nan	nan	nan	nan	nan	nan	nan	nan	nan	nan	nan	nan	nan	nan	nan	nan	nan	nan	nan	nan	nan	nan	nan	nan	nan	nan	nan	
4	0.03	-1476.834716796875	1329.408935546875	358.4908447265624	-1447.197387695312	1374.371337890625	259.5626831054686	-1335.865356445312	1289.687377929688	263.2691040039062	-1478.668090820312	995.9877319335939	244.9777679443359	-1288.094360351562	1043.014282226562	248.0684814453124	-1320.025634765625	889.0961303710939	358.9577026367187	-1497.254516601562	924.4609375000001	287.915557861328	-1499.946166992188	921.2873535156251	199.2082519531249	-1311.4091796875	886.6817016601564	149.9037933349609	-1401.064331054688	960.2744750976564	97.5443801879882	-1418.638305664062	965.5606689453126	392.4588317871093	-1472.90966796875	645.3922119140626	366.7831726074218	-1436.203491210938	586.2586059570314	387.190460205078	-1472.492553710938	541.3936767578126	350.6149597167968	-1384.21240234375	548.9172363281251	425.1676025390624	-1400.892456054688	457.9709777832032	367.093780517578	-1411.693481445312	450.0650024414064	239.3463592529296	-1348.515502929688	444.5113525390626	304.5159606933593	-1414.200439453125	423.9878845214845	362.9421386718749	-1438.061279296875	405.1661376953126	242.1896209716796	-1379.313232421875	381.8608398437501	314.9446105957031	-1399.267211914062	278.5054321289064	308.7930297851561	-1430.130493164062	236.7325592041016	347.4497680664061	-1418.734252929688	185.5030212402345	301.2946777343749	-1494.446655273438	186.6788940429688	375.5263061523436	-1486.921264648438	71.98226928710946	313.9539489746093	-1452.679931640625	88.68160247802743	245.4122619628905	-1524.2255859375	37.9937400817872	264.6422424316405	-1349.213134765625	40.11826324462899	329.4562683105468	-1381.922119140625	18.30643653869637	360.8219299316406	-1357.841552734375	611.3519897460939	101.6840820312499	-1297.468139648438	587.6129760742189	88.04084777832023	-1306.49853515625	529.6310424804689	119.2786407470702	-1248.559936523438	575.8903808593751	54.76357650756828	-1221.517211914062	481.7388916015626	114.6523513793945	-1240.64404296875	472.7615051269532	238.4696960449218	-1155.029663085938	490.1889953613282	181.1753387451171	-1242.668823242188	450.1694335937501	114.7631301879882	-1243.362548828125	434.1944885253907	231.6179656982421	-1195.345458984375	408.9170227050782	162.2850799560546	-1254.88818359375	281.8756103515626	165.3789520263671	-1298.408569335938	242.7203216552735	127.9538269042968	-1293.520629882812	194.7730255126954	169.4810180664062	-1363.74951171875	249.0567016601563	89.82326507568351	-1379.593505859375	132.4865875244141	144.2163085937499	-1338.598999023438	126.1870269775391	206.2592773437499	-1423.1142578125	106.3803100585938	197.0115661621093	-1266.232299804688	55.51994323730477	120.3235855102538	-1302.668212890625	41.75149917602547	93.01654052734366	nan	nan	nan	nan	nan	nan	nan	nan	nan	nan	nan	nan	nan	nan	nan	nan	nan	nan	nan	nan	nan	nan	nan	nan	nan	nan	nan	nan	nan	nan	nan	nan	nan	nan	nan	nan	nan	nan	nan	nan	nan	nan	nan	nan	nan	nan	nan	nan	nan	nan	nan	nan	nan	nan	nan	nan	nan	nan	nan	nan	nan	nan	nan	nan	nan	nan	nan	nan	nan	nan	nan	nan	nan	nan	nan	nan	nan	nan	nan	nan	nan	nan	nan	nan	nan	nan	nan	nan	nan	nan	nan	nan	nan	nan	nan	nan	nan	nan	nan	nan	nan	nan	nan	nan	nan	nan	nan	nan	nan	nan	nan	nan	nan	nan	nan	nan	nan	nan	nan	nan	nan	nan	nan	nan	nan	nan	nan	nan	nan	nan	nan	nan	nan	nan	nan	nan	nan	nan	nan	nan	nan	nan	nan	nan	
